<mxfile host="app.diagrams.net" modified="2020-09-18T01:16:55.047Z" agent="5.0 (Macintosh; Intel Mac OS X 10_15_6) AppleWebKit/537.36 (KHTML, like Gecko) Chrome/84.0.4147.125 Safari/537.36" etag="IJ3ac3LY6fgacFIMg2-r" version="13.7.1" type="github">
  <diagram id="yF1qe2Hobf6_NzJUYrz8" name="Page-1">
    <mxGraphModel dx="1613" dy="1167" grid="1" gridSize="10" guides="1" tooltips="1" connect="1" arrows="1" fold="1" page="1" pageScale="1" pageWidth="827" pageHeight="1169" math="0" shadow="0">
      <root>
        <mxCell id="0" />
        <mxCell id="1" parent="0" />
        <mxCell id="9cLJsXvte6oS7nX4Bnyg-1" value="list 컴포넌트 흐름&lt;br&gt;" style="rounded=0;whiteSpace=wrap;html=1;" vertex="1" parent="1">
          <mxGeometry x="-20" y="30" width="120" height="60" as="geometry" />
        </mxCell>
        <mxCell id="9cLJsXvte6oS7nX4Bnyg-7" style="edgeStyle=orthogonalEdgeStyle;rounded=0;orthogonalLoop=1;jettySize=auto;html=1;exitX=0.5;exitY=1;exitDx=0;exitDy=0;" edge="1" parent="1" source="9cLJsXvte6oS7nX4Bnyg-2" target="9cLJsXvte6oS7nX4Bnyg-3">
          <mxGeometry relative="1" as="geometry" />
        </mxCell>
        <mxCell id="9cLJsXvte6oS7nX4Bnyg-2" value="&lt;meta charset=&quot;utf-8&quot;&gt;&lt;div style=&quot;color: rgb(238, 255, 255); background-color: rgb(33, 33, 33); font-family: menlo, monaco, &amp;quot;courier new&amp;quot;, monospace; font-weight: normal; font-size: 14px; line-height: 21px;&quot;&gt;&lt;div&gt;&lt;span style=&quot;color: #89ddff&quot;&gt;&amp;lt;&lt;/span&gt;&lt;span style=&quot;color: #f07178&quot;&gt;div&lt;/span&gt;&lt;span style=&quot;color: #89ddff&quot;&gt;&amp;gt;&lt;/span&gt;&lt;span style=&quot;color: #eeffff&quot;&gt;doneCount: &lt;/span&gt;&lt;span style=&quot;color: #89ddff&quot;&gt;{{&lt;/span&gt;&lt;span style=&quot;color: #eeffff&quot;&gt; doneCount &lt;/span&gt;&lt;span style=&quot;color: #89ddff&quot;&gt;}}&amp;lt;/&lt;/span&gt;&lt;span style=&quot;color: #f07178&quot;&gt;div&lt;/span&gt;&lt;span style=&quot;color: #89ddff&quot;&gt;&amp;gt;&lt;/span&gt;&lt;/div&gt;&lt;/div&gt;" style="text;whiteSpace=wrap;html=1;" vertex="1" parent="1">
          <mxGeometry x="-735" y="150" width="340" height="40" as="geometry" />
        </mxCell>
        <mxCell id="9cLJsXvte6oS7nX4Bnyg-9" style="edgeStyle=orthogonalEdgeStyle;rounded=0;orthogonalLoop=1;jettySize=auto;html=1;" edge="1" parent="1" source="9cLJsXvte6oS7nX4Bnyg-3" target="9cLJsXvte6oS7nX4Bnyg-5">
          <mxGeometry relative="1" as="geometry" />
        </mxCell>
        <mxCell id="9cLJsXvte6oS7nX4Bnyg-3" value="computed" style="rounded=0;whiteSpace=wrap;html=1;" vertex="1" parent="1">
          <mxGeometry x="-730" y="240" width="140" height="50" as="geometry" />
        </mxCell>
        <mxCell id="9cLJsXvte6oS7nX4Bnyg-11" style="edgeStyle=orthogonalEdgeStyle;rounded=0;orthogonalLoop=1;jettySize=auto;html=1;" edge="1" parent="1" source="9cLJsXvte6oS7nX4Bnyg-5" target="9cLJsXvte6oS7nX4Bnyg-10">
          <mxGeometry relative="1" as="geometry" />
        </mxCell>
        <mxCell id="9cLJsXvte6oS7nX4Bnyg-5" value="&lt;div style=&quot;color: rgb(238 , 255 , 255) ; background-color: rgb(33 , 33 , 33) ; font-family: &amp;#34;menlo&amp;#34; , &amp;#34;monaco&amp;#34; , &amp;#34;courier new&amp;#34; , monospace ; font-weight: normal ; line-height: 21px&quot;&gt;&lt;div&gt;&lt;span style=&quot;color: #f07178&quot;&gt;doneCount&lt;/span&gt;&lt;span style=&quot;color: #89ddff&quot;&gt;()&lt;/span&gt;&lt;span style=&quot;color: #eeffff&quot;&gt; &lt;/span&gt;&lt;span style=&quot;color: #89ddff&quot;&gt;{&lt;/span&gt;&lt;/div&gt;&lt;div&gt;&lt;span style=&quot;color: #f07178&quot;&gt;      &lt;/span&gt;&lt;span style=&quot;color: #89ddff ; font-style: italic&quot;&gt;return&lt;/span&gt;&lt;span style=&quot;color: #f07178&quot;&gt; &lt;/span&gt;&lt;span style=&quot;color: #89ddff&quot;&gt;this.&lt;/span&gt;&lt;span style=&quot;color: #eeffff&quot;&gt;$store&lt;/span&gt;&lt;span style=&quot;color: #89ddff&quot;&gt;.&lt;/span&gt;&lt;span style=&quot;color: #eeffff&quot;&gt;getters&lt;/span&gt;&lt;span style=&quot;color: #f07178&quot;&gt;[&lt;/span&gt;&lt;span style=&quot;color: #89ddff&quot;&gt;&#39;&lt;/span&gt;&lt;span style=&quot;color: #c3e88d&quot;&gt;todos/doneCount&lt;/span&gt;&lt;span style=&quot;color: #89ddff&quot;&gt;&#39;&lt;/span&gt;&lt;span style=&quot;color: #f07178&quot;&gt;]&lt;/span&gt;&lt;/div&gt;&lt;div&gt;&lt;span style=&quot;color: #f07178&quot;&gt;    &lt;/span&gt;&lt;span style=&quot;color: #89ddff&quot;&gt;},&lt;/span&gt;&lt;/div&gt;&lt;/div&gt;" style="text;whiteSpace=wrap;html=1;" vertex="1" parent="1">
          <mxGeometry x="-730" y="370" width="330" height="60" as="geometry" />
        </mxCell>
        <mxCell id="9cLJsXvte6oS7nX4Bnyg-13" style="edgeStyle=orthogonalEdgeStyle;rounded=0;orthogonalLoop=1;jettySize=auto;html=1;entryX=0.5;entryY=0;entryDx=0;entryDy=0;" edge="1" parent="1" source="9cLJsXvte6oS7nX4Bnyg-10" target="9cLJsXvte6oS7nX4Bnyg-12">
          <mxGeometry relative="1" as="geometry" />
        </mxCell>
        <mxCell id="9cLJsXvte6oS7nX4Bnyg-10" value="store/todos.js" style="rounded=0;whiteSpace=wrap;html=1;" vertex="1" parent="1">
          <mxGeometry x="-635" y="490" width="140" height="50" as="geometry" />
        </mxCell>
        <mxCell id="9cLJsXvte6oS7nX4Bnyg-15" style="edgeStyle=orthogonalEdgeStyle;rounded=0;orthogonalLoop=1;jettySize=auto;html=1;entryX=0.5;entryY=0;entryDx=0;entryDy=0;" edge="1" parent="1" source="9cLJsXvte6oS7nX4Bnyg-12" target="9cLJsXvte6oS7nX4Bnyg-17">
          <mxGeometry relative="1" as="geometry">
            <mxPoint x="-570" y="690" as="targetPoint" />
          </mxGeometry>
        </mxCell>
        <mxCell id="9cLJsXvte6oS7nX4Bnyg-12" value="getters" style="rounded=0;whiteSpace=wrap;html=1;" vertex="1" parent="1">
          <mxGeometry x="-635" y="580" width="140" height="50" as="geometry" />
        </mxCell>
        <mxCell id="9cLJsXvte6oS7nX4Bnyg-20" style="edgeStyle=orthogonalEdgeStyle;rounded=0;orthogonalLoop=1;jettySize=auto;html=1;" edge="1" parent="1" source="9cLJsXvte6oS7nX4Bnyg-17" target="9cLJsXvte6oS7nX4Bnyg-19">
          <mxGeometry relative="1" as="geometry" />
        </mxCell>
        <mxCell id="9cLJsXvte6oS7nX4Bnyg-17" value="&lt;div style=&quot;color: rgb(238 , 255 , 255) ; background-color: rgb(33 , 33 , 33) ; font-family: &amp;#34;menlo&amp;#34; , &amp;#34;monaco&amp;#34; , &amp;#34;courier new&amp;#34; , monospace ; font-weight: normal ; line-height: 21px ; font-size: 11px&quot;&gt;&lt;div&gt;&lt;span style=&quot;color: #eeffff&quot;&gt;  &lt;/span&gt;&lt;span style=&quot;color: #82aaff&quot;&gt;doneCount&lt;/span&gt;&lt;span style=&quot;color: #89ddff&quot;&gt;:&lt;/span&gt;&lt;span style=&quot;color: #eeffff&quot;&gt; &lt;/span&gt;&lt;span style=&quot;color: #89ddff&quot;&gt;(&lt;/span&gt;&lt;span style=&quot;color: #eeffff&quot;&gt;state&lt;/span&gt;&lt;span style=&quot;color: #89ddff&quot;&gt;,&lt;/span&gt;&lt;span style=&quot;color: #eeffff&quot;&gt; &lt;/span&gt;&lt;span style=&quot;color: #eeffff&quot;&gt;getters&lt;/span&gt;&lt;span style=&quot;color: #89ddff&quot;&gt;)&lt;/span&gt;&lt;span style=&quot;color: #eeffff&quot;&gt; &lt;/span&gt;&lt;span style=&quot;color: #c792ea&quot;&gt;=&amp;gt;&lt;/span&gt;&lt;span style=&quot;color: #eeffff&quot;&gt; &lt;/span&gt;&lt;span style=&quot;color: #89ddff&quot;&gt;{&lt;/span&gt;&lt;/div&gt;&lt;div&gt;&lt;span style=&quot;color: #f07178&quot;&gt;    &lt;/span&gt;&lt;span style=&quot;color: #89ddff ; font-style: italic&quot;&gt;return&lt;/span&gt;&lt;span style=&quot;color: #f07178&quot;&gt; &lt;/span&gt;&lt;span style=&quot;color: #eeffff&quot;&gt;getters&lt;/span&gt;&lt;span style=&quot;color: #89ddff&quot;&gt;.&lt;/span&gt;&lt;span style=&quot;color: #eeffff&quot;&gt;doneTodos&lt;/span&gt;&lt;span style=&quot;color: #89ddff&quot;&gt;.&lt;/span&gt;&lt;span style=&quot;color: #eeffff&quot;&gt;length&lt;/span&gt;&lt;/div&gt;&lt;div&gt;&lt;span style=&quot;color: #f07178&quot;&gt;  &lt;/span&gt;&lt;span style=&quot;color: #89ddff&quot;&gt;}&lt;/span&gt;&lt;/div&gt;&lt;/div&gt;" style="text;whiteSpace=wrap;html=1;" vertex="1" parent="1">
          <mxGeometry x="-700" y="710" width="230" height="80" as="geometry" />
        </mxCell>
        <mxCell id="9cLJsXvte6oS7nX4Bnyg-22" style="edgeStyle=orthogonalEdgeStyle;rounded=0;orthogonalLoop=1;jettySize=auto;html=1;" edge="1" parent="1" source="9cLJsXvte6oS7nX4Bnyg-19" target="9cLJsXvte6oS7nX4Bnyg-21">
          <mxGeometry relative="1" as="geometry" />
        </mxCell>
        <mxCell id="9cLJsXvte6oS7nX4Bnyg-19" value="&lt;div style=&quot;color: rgb(238 , 255 , 255) ; background-color: rgb(33 , 33 , 33) ; font-family: &amp;#34;menlo&amp;#34; , &amp;#34;monaco&amp;#34; , &amp;#34;courier new&amp;#34; , monospace ; font-weight: normal ; line-height: 21px ; font-size: 11px&quot;&gt;&lt;div&gt;&lt;span style=&quot;color: #eeffff&quot;&gt;  &lt;/span&gt;&lt;span style=&quot;color: #82aaff&quot;&gt;doneTodos&lt;/span&gt;&lt;span style=&quot;color: #89ddff&quot;&gt;:&lt;/span&gt;&lt;span style=&quot;color: #eeffff&quot;&gt; &lt;/span&gt;&lt;span style=&quot;color: #89ddff&quot;&gt;(&lt;/span&gt;&lt;span style=&quot;color: #eeffff&quot;&gt;state&lt;/span&gt;&lt;span style=&quot;color: #89ddff&quot;&gt;)&lt;/span&gt;&lt;span style=&quot;color: #eeffff&quot;&gt; &lt;/span&gt;&lt;span style=&quot;color: #c792ea&quot;&gt;=&amp;gt;&lt;/span&gt;&lt;span style=&quot;color: #eeffff&quot;&gt; &lt;/span&gt;&lt;span style=&quot;color: #89ddff&quot;&gt;{&lt;/span&gt;&lt;/div&gt;&lt;div&gt;&lt;span style=&quot;color: #f07178&quot;&gt;    &lt;/span&gt;&lt;span style=&quot;color: #89ddff ; font-style: italic&quot;&gt;return&lt;/span&gt;&lt;span style=&quot;color: #f07178&quot;&gt; &lt;/span&gt;&lt;span style=&quot;color: #eeffff&quot;&gt;state&lt;/span&gt;&lt;span style=&quot;color: #89ddff&quot;&gt;.&lt;/span&gt;&lt;span style=&quot;color: #eeffff&quot;&gt;list&lt;/span&gt;&lt;span style=&quot;color: #89ddff&quot;&gt;.&lt;/span&gt;&lt;span style=&quot;color: #82aaff&quot;&gt;filter&lt;/span&gt;&lt;span style=&quot;color: #f07178&quot;&gt;(&lt;/span&gt;&lt;span style=&quot;color: #89ddff&quot;&gt;(&lt;/span&gt;&lt;span style=&quot;color: #eeffff&quot;&gt;todo&lt;/span&gt;&lt;span style=&quot;color: #89ddff&quot;&gt;)&lt;/span&gt;&lt;span style=&quot;color: #f07178&quot;&gt; &lt;/span&gt;&lt;span style=&quot;color: #c792ea&quot;&gt;=&amp;gt;&lt;/span&gt;&lt;span style=&quot;color: #f07178&quot;&gt; &lt;/span&gt;&lt;span style=&quot;color: #eeffff&quot;&gt;todo&lt;/span&gt;&lt;span style=&quot;color: #89ddff&quot;&gt;.&lt;/span&gt;&lt;span style=&quot;color: #eeffff&quot;&gt;completed&lt;/span&gt;&lt;span style=&quot;color: #f07178&quot;&gt;)&lt;/span&gt;&lt;/div&gt;&lt;div&gt;&lt;span style=&quot;color: #f07178&quot;&gt;  &lt;/span&gt;&lt;span style=&quot;color: #89ddff&quot;&gt;},&lt;/span&gt;&lt;/div&gt;&lt;/div&gt;" style="text;whiteSpace=wrap;html=1;" vertex="1" parent="1">
          <mxGeometry x="-760" y="860" width="350" height="80" as="geometry" />
        </mxCell>
        <mxCell id="9cLJsXvte6oS7nX4Bnyg-24" style="edgeStyle=orthogonalEdgeStyle;rounded=0;orthogonalLoop=1;jettySize=auto;html=1;exitX=0.5;exitY=1;exitDx=0;exitDy=0;entryX=0.5;entryY=0;entryDx=0;entryDy=0;" edge="1" parent="1" source="9cLJsXvte6oS7nX4Bnyg-21" target="9cLJsXvte6oS7nX4Bnyg-23">
          <mxGeometry relative="1" as="geometry" />
        </mxCell>
        <mxCell id="9cLJsXvte6oS7nX4Bnyg-21" value="&lt;font style=&quot;font-size: 14px&quot;&gt;state/list&lt;/font&gt;" style="rounded=0;whiteSpace=wrap;html=1;" vertex="1" parent="1">
          <mxGeometry x="-820" y="1110" width="120" height="30" as="geometry" />
        </mxCell>
        <mxCell id="9cLJsXvte6oS7nX4Bnyg-23" value="&lt;div style=&quot;color: rgb(238 , 255 , 255) ; background-color: rgb(33 , 33 , 33) ; font-family: &amp;#34;menlo&amp;#34; , &amp;#34;monaco&amp;#34; , &amp;#34;courier new&amp;#34; , monospace ; font-weight: normal ; line-height: 21px ; font-size: 11px&quot;&gt;&lt;div&gt;&lt;span style=&quot;color: #eeffff&quot;&gt; &lt;/span&gt;&lt;span style=&quot;color: #82aaff&quot;&gt;state&lt;/span&gt;&lt;span style=&quot;color: #eeffff&quot;&gt; &lt;/span&gt;&lt;span style=&quot;color: #89ddff&quot;&gt;=&lt;/span&gt;&lt;span style=&quot;color: #eeffff&quot;&gt; &lt;/span&gt;&lt;span style=&quot;color: #89ddff&quot;&gt;()&lt;/span&gt;&lt;span style=&quot;color: #eeffff&quot;&gt; &lt;/span&gt;&lt;span style=&quot;color: #c792ea&quot;&gt;=&amp;gt;&lt;/span&gt;&lt;span style=&quot;color: #eeffff&quot;&gt; (&lt;/span&gt;&lt;span style=&quot;color: #89ddff&quot;&gt;{&lt;/span&gt;&lt;/div&gt;&lt;div&gt;&lt;span style=&quot;color: #eeffff&quot;&gt;  &lt;/span&gt;&lt;span style=&quot;color: #eeffff&quot;&gt;list&lt;/span&gt;&lt;span style=&quot;color: #89ddff&quot;&gt;:&lt;/span&gt;&lt;span style=&quot;color: #eeffff&quot;&gt; []&lt;/span&gt;&lt;span style=&quot;color: #89ddff&quot;&gt;,&lt;/span&gt;&lt;/div&gt;&lt;div&gt;&lt;span style=&quot;color: #89ddff&quot;&gt;}&lt;/span&gt;&lt;span style=&quot;color: #eeffff&quot;&gt;)&lt;/span&gt;&lt;/div&gt;&lt;/div&gt;" style="text;whiteSpace=wrap;html=1;" vertex="1" parent="1">
          <mxGeometry x="-820" y="1169" width="110" height="80" as="geometry" />
        </mxCell>
      </root>
    </mxGraphModel>
  </diagram>
</mxfile>
